<svg xmlns="http://www.w3.org/2000/svg" viewBox="0 0 41 41" fill="none">
	<path
		d="M40.9996 20.1263C40.9526 16.2914 39.8105 12.5499 37.7081 9.34234C35.6057 6.13476 32.6306 3.59472 29.1331 2.02137C25.6354 0.448023 21.7611 -0.0931039 17.9662 0.461682C14.1715 1.01649 10.6142 2.6441 7.71343 5.1529C4.81265 7.66168 2.68917 10.9471 1.59305 14.6223C0.496963 18.2975 0.473871 22.2093 1.52654 25.8973C2.57922 29.5852 4.66378 32.8953 7.53476 35.4382C10.4057 37.9811 13.9435 39.6506 17.7315 40.25V25.9873H12.7006V20.1263H17.7315V15.6739C17.6151 14.6387 17.7273 13.5905 18.0603 12.6033C18.3934 11.6161 18.939 10.7141 19.6586 9.96081C20.3783 9.20753 21.2544 8.6214 22.2254 8.24381C23.1964 7.86618 24.2385 7.70628 25.2779 7.7754C26.7867 7.79605 28.292 7.93061 29.7806 8.17788V13.2088H27.2652C26.8315 13.1541 26.3908 13.1976 25.9762 13.336C25.5614 13.4744 25.1831 13.7043 24.8692 14.0085C24.5552 14.3128 24.3138 14.6837 24.1626 15.0938C24.0111 15.5041 23.954 15.943 23.995 16.3782V20.1766H29.5794L28.6738 26.0376H24.0202V40.1242C28.7742 39.3724 33.1013 36.9414 36.2164 33.2724C39.3316 29.6033 41.0285 24.9394 40.9996 20.1263Z"
		fill="white" />
</svg>