<svg width="81" height="28" viewBox="0 0 81 28" fill="none" xmlns="http://www.w3.org/2000/svg">
    <path fill-rule="evenodd" clip-rule="evenodd"
        d="M80.8906 2.33512C80.9129 1.08124 79.8116 -0.0238084 78.5577 0.00223658C77.3039 -0.0238084 76.1988 1.08124 76.2248 2.33512C76.2025 3.589 77.3039 4.69405 78.5577 4.668C79.8116 4.69405 80.9169 3.589 80.8906 2.33512ZM76.6825 2.33512C76.6825 1.29704 77.5383 0.448722 78.5577 0.448722C79.5772 0.448722 80.433 1.29704 80.433 2.33512C80.433 3.37319 79.5772 4.22152 78.5577 4.22152C77.5383 4.22152 76.6825 3.37319 76.6825 2.33512ZM78.7661 0.932412H77.6201V3.74155H78.0517V2.52115H78.4982L79.1866 3.74155H79.6776L78.9819 2.50256C79.38 2.40953 79.6628 2.12676 79.6628 1.72864C79.6628 1.25611 79.3316 0.932412 78.7661 0.932412ZM79.2348 1.72492C79.2348 2.00026 79.0526 2.14164 78.6954 2.14164H78.0517V1.31937H78.6954C79.0526 1.31937 79.2348 1.44959 79.2348 1.72492ZM17.6719 0.229297C17.4444 0.336261 17.2443 0.493024 17.0868 0.68775L9.68767 9.29924L9.57127 9.43918L7.97504 11.3245L7.30995 12.0984C7.13331 12.2654 6.89742 12.3571 6.65316 12.3536H3.32768V1.57689C3.32912 1.36366 3.28651 1.15241 3.20248 0.95608C3.11846 0.759756 2.99479 0.582518 2.83907 0.435251C2.68335 0.287986 2.49886 0.173802 2.29696 0.0997151C2.09504 0.0256283 1.87998 -0.00679743 1.66495 0.00442983C1.44963 -0.008017 1.23404 0.0235657 1.03158 0.0972108C0.829123 0.170857 0.644149 0.284988 0.48817 0.432498C0.332191 0.580008 0.208549 0.757738 0.124943 0.954624C0.041337 1.1515 -0.000442335 1.36332 0.00220657 1.57689V26.4234C-0.00168382 26.6373 0.0392518 26.8497 0.122429 27.0472C0.205606 27.2446 0.329219 27.4228 0.485463 27.5706C0.641708 27.7184 0.82719 27.8324 1.0302 27.9056C1.23321 27.9788 1.44934 28.0096 1.66495 27.9958C1.88582 28.0052 2.10622 27.969 2.31221 27.8895C2.51821 27.81 2.70529 27.6891 2.86161 27.5343C3.01793 27.3795 3.14007 27.1942 3.2203 26.9903C3.30053 26.7863 3.3371 26.568 3.32768 26.3493V15.6467H6.65316C6.8969 15.6497 7.12972 15.7472 7.30164 15.9184L7.96673 16.6922L9.56294 18.5775L9.67934 18.7175L17.0868 27.3043C17.2451 27.4975 17.4455 27.6527 17.673 27.7583C17.9006 27.8637 18.1492 27.9169 18.4005 27.9136C18.8055 27.9145 19.1988 27.778 19.5145 27.5266C19.6896 27.3929 19.8326 27.2224 19.9332 27.0273C20.0338 26.8323 20.0896 26.6176 20.0965 26.3987C20.082 25.9927 19.923 25.6047 19.6474 25.3038L9.88723 14.0001L19.6474 2.68008C19.9269 2.38478 20.0868 1.99792 20.0965 1.59336C20.0896 1.37445 20.0338 1.15977 19.9332 0.964735C19.8326 0.769713 19.6896 0.599199 19.5145 0.465465C19.2016 0.208102 18.8072 0.0681802 18.4005 0.070292C18.1486 0.0679621 17.8994 0.122332 17.6719 0.229297ZM24.3758 0.107802C24.58 0.0283664 24.799 -0.00687994 25.0181 0.00442983C25.2386 -0.00364604 25.4585 0.0334193 25.664 0.113308C25.8694 0.193198 26.0559 0.314193 26.212 0.468729C26.3681 0.623267 26.4902 0.808022 26.5709 1.01145C26.6516 1.21487 26.6891 1.43259 26.6809 1.65098V26.481C26.6817 26.6916 26.6382 26.8999 26.5531 27.0929C26.4681 27.2858 26.3433 27.459 26.1869 27.6016C26.0304 27.7441 25.8457 27.8528 25.6445 27.9207C25.4432 27.9885 25.2299 28.0142 25.0181 27.9958C24.8115 28.0143 24.6033 27.9896 24.4069 27.9233C24.2105 27.8569 24.0305 27.7503 23.8784 27.6106C23.7263 27.4709 23.6056 27.3011 23.5241 27.1121C23.4426 26.9232 23.4021 26.7194 23.4053 26.5139V1.65098C23.3872 1.43445 23.4161 1.21658 23.4901 1.01202C23.564 0.807464 23.6813 0.620942 23.8341 0.464984C23.9869 0.309024 24.1716 0.187238 24.3758 0.107802ZM65.3453 0.47715C65.6673 0.196204 66.0826 0.0425725 66.5118 0.0455937C66.7168 0.0494694 66.9188 0.0947849 67.1055 0.17876C67.2921 0.262734 67.4595 0.383596 67.5973 0.533928C67.7351 0.68426 67.8404 0.86089 67.9068 1.05298C67.9732 1.24507 67.9992 1.44856 67.9833 1.65098C67.9803 1.84797 67.9553 2.04401 67.9085 2.23551L62.2968 24.8592C62.0419 25.7947 61.4718 26.6158 60.6809 27.1863C59.8901 27.7568 58.926 28.0424 57.9487 27.9958C56.9973 28.0282 56.0628 27.7407 55.2975 27.1801C54.5322 26.6195 53.9809 25.8189 53.7336 24.9085L48.92 6.38483L44.1396 24.9085C43.8674 25.8303 43.2913 26.6351 42.5032 27.1947C41.7151 27.7542 40.7604 28.0363 39.7916 27.9958C38.8322 28.0368 37.8881 27.7475 37.1198 27.1771C36.3514 26.6069 35.8061 25.7907 35.5765 24.8674L29.9731 1.86504C29.9609 1.74184 29.9609 1.61776 29.9731 1.49456C29.9836 1.29041 30.0353 1.0904 30.1251 0.906342C30.2149 0.722273 30.341 0.557873 30.4959 0.42283C30.6508 0.287787 30.8315 0.184837 31.0273 0.120048C31.2231 0.055259 31.43 0.0299434 31.6358 0.0455937C31.9881 0.0447904 32.3304 0.161235 32.6079 0.376231C32.8852 0.591226 33.0817 0.892299 33.1655 1.23111L38.744 23.9453C38.9103 24.6122 39.2761 24.9415 39.8581 24.9415C40.1378 24.9478 40.41 24.851 40.6219 24.6701C40.8339 24.4891 40.9705 24.2368 41.0054 23.9618L46.958 1.3052C47.0816 0.904942 47.3434 0.560394 47.6974 0.331689C48.0514 0.102983 48.4753 0.00464203 48.8951 0.0538265C49.3155 0.00748857 49.739 0.106861 50.0938 0.335024C50.4485 0.563188 50.7123 0.906042 50.8405 1.3052L56.8679 23.9618C56.9029 24.2368 57.0395 24.4891 57.2514 24.6701C57.4632 24.851 57.7354 24.9478 58.0152 24.9415C58.6055 24.9415 58.9713 24.6204 59.1459 23.9453L64.7659 1.56865C64.817 1.14666 65.0233 0.758095 65.3453 0.47715ZM72.3624 0.107802C72.5667 0.0283664 72.7857 -0.00687994 73.0048 0.00442983C73.2253 -0.00364604 73.4452 0.0334193 73.6507 0.113308C73.856 0.193198 74.0426 0.314193 74.1987 0.468729C74.3547 0.623267 74.4769 0.808022 74.5576 1.01145C74.6383 1.21487 74.6757 1.43259 74.6675 1.65098V26.481C74.6683 26.6916 74.6248 26.8999 74.5398 27.0929C74.4547 27.2858 74.33 27.459 74.1735 27.6016C74.0171 27.7441 73.8323 27.8528 73.6312 27.9207C73.4299 27.9885 73.2166 28.0142 73.0048 27.9958C72.7982 28.0143 72.59 27.9896 72.3936 27.9233C72.1973 27.8569 72.0172 27.7503 71.8651 27.6106C71.713 27.4709 71.5923 27.3011 71.5107 27.1121C71.4293 26.9232 71.3888 26.7194 71.3919 26.5139V1.65098C71.3739 1.43445 71.4028 1.21658 71.4768 1.01202C71.5507 0.807464 71.668 0.620942 71.8208 0.464984C71.9735 0.309024 72.1583 0.187238 72.3624 0.107802Z"
        fill="black" />
</svg>