<svg width="48" height="48" viewBox="0 0 48 48" fill="none" xmlns="http://www.w3.org/2000/svg">
    <mask id="path-1-inside-1_302_106" fill="white">
        <path
            d="M0 24C0 10.7452 10.7452 0 24 0C37.2548 0 48 10.7452 48 24C48 37.2548 37.2548 48 24 48C10.7452 48 0 37.2548 0 24Z" />
    </mask>
    <path
        d="M24 47C11.2975 47 1 36.7025 1 24H-1C-1 37.8071 10.1929 49 24 49V47ZM47 24C47 36.7025 36.7025 47 24 47V49C37.8071 49 49 37.8071 49 24H47ZM24 1C36.7025 1 47 11.2975 47 24H49C49 10.1929 37.8071 -1 24 -1V1ZM24 -1C10.1929 -1 -1 10.1929 -1 24H1C1 11.2975 11.2975 1 24 1V-1Z"
        fill="#DBEAFE" mask="url(#path-1-inside-1_302_106)" />
    <path d="M29.8334 24H18.1667M18.1667 24L24.0001 29.8333M18.1667 24L24.0001 18.1666"
        stroke="#FCFCFD" stroke-width="2" stroke-linecap="round" stroke-linejoin="round" />
</svg>